<?xml version="1.0" encoding="UTF-8" standalone="no"?>
<!DOCTYPE svg PUBLIC "-//W3C//DTD SVG 1.1//EN" "http://www.w3.org/Graphics/SVG/1.1/DTD/svg11.dtd">
<svg width="100%" height="100%" viewBox="0 0 1054 517" version="1.1" xmlns="http://www.w3.org/2000/svg" xmlns:xlink="http://www.w3.org/1999/xlink" xml:space="preserve" xmlns:serif="http://www.serif.com/" style="fill-rule:evenodd;clip-rule:evenodd;stroke-linejoin:round;stroke-miterlimit:2;">
    <g id="Artboard1" transform="matrix(0.727901,0,0,0.476059,0,0)">
        <rect x="0" y="0" width="1448" height="1086" style="fill:none;"/>
        <g id="Layer1" transform="matrix(1.373814,0,0,2.10058,-215.688805,-527.245648)">
            <g transform="matrix(1.414062,0,0,1.414062,-0.300715,14)">
                <path d="M337.454,324.529C336.623,325.814 336.558,325.768 336.034,327.224C333.238,332.036 332.473,333.291 321.377,338.237C299.035,348.196 259.477,357.817 265.439,372.527C269.772,383.218 300.4,383.269 296.468,391.482C293.212,398.285 236.422,410.231 215.66,424.736C201.804,434.415 204.132,441.579 200.694,438.308C199.976,437.625 184.096,415.896 178.859,406.302C172.755,395.118 172.695,395.177 167.012,383.746C161.675,373.013 159.382,365.752 159.375,365.507C159.324,363.832 159.707,363.792 202.168,313.227C208.393,305.814 209.35,304.162 211.123,305.878C212.223,306.943 211.927,307.172 223.83,320.192C225.68,322.216 226.294,323.189 228.024,321.079C229.751,318.973 229.856,319.066 250.105,295.172C272.764,268.433 272.647,268.274 273.623,267.716C275.094,266.876 277.159,270.048 277.534,270.47C284.361,278.164 315.11,313.917 315.636,314.315C317.071,315.404 318.816,313.095 319.957,311.964C323.326,308.624 323.904,308.403 325.283,309.722C325.284,309.723 334.844,320.905 337.454,324.529Z" style="fill:url(#_Linear1);"/>
            </g>
            <g transform="matrix(1.414062,0,0,1.414062,-0.300715,14)">
                <path d="M337.454,324.529C339.178,326.01 339.053,326.129 348.55,337.457C349.268,338.314 351.412,341.859 352.142,337.41C354.098,325.487 358.082,306.892 348.295,278.575C346.215,272.556 343.783,270.569 347.567,269.752C355.95,267.941 360.482,261.336 361.236,260.238C362.669,258.149 363.511,260.277 363.58,260.452C367.759,271.01 375.827,284.349 375.929,313.498C375.984,329.228 374.951,358.036 344.089,411.27C338.547,420.83 320.511,446.963 313.146,456.225C310.585,459.447 292.52,483.534 266.551,508.554C264.325,510.699 263.741,511.608 261.583,509.417C258.905,506.696 246.486,493.209 245.181,491.792C239.916,486.074 239.937,486.092 234.722,480.303C228.501,473.398 221.556,468.271 225.437,454.483C235.844,417.51 331.603,412.002 321.525,387.489C319.561,382.712 311.166,379.482 309.411,378.721C302.92,375.903 292.094,374.822 286.132,369.831C281.294,362.523 294.658,359.925 317.62,346.721C325.143,342.395 332.584,337.687 336.494,330.498C338.013,327.705 336.253,327.699 336.034,327.224C336.558,325.768 336.623,325.814 337.454,324.529Z" style="fill:url(#_Linear2);"/>
            </g>
            <g transform="matrix(1.414062,0,0,1.414062,-0.300715,14)">
                <path d="M541.24,393.501C541.243,376.834 541.245,360.167 541.248,343.501C541.195,316.82 541.483,316.826 541.478,314.506C541.475,312.956 539.968,313.535 539.761,313.741C539.342,314.16 539.935,314.524 536.011,320.143C511.127,355.773 510.99,355.633 508.918,358.79C506.185,362.953 506.224,362.945 505.25,364.33C503.446,366.893 502.627,366.41 495.5,366.429C485.289,366.456 484.79,366.802 482.857,364.231C477.023,356.469 477.418,356.211 471.655,348.392C467.556,342.829 455.986,326.412 453.731,323.337C447.415,314.727 448.051,314.271 447.318,313.705C447.302,313.693 445.564,312.805 445.602,314.522C445.647,316.566 445.892,316.551 445.838,328.502C445.815,333.547 445.86,333.513 445.846,338.502C445.686,395.746 445.907,395.878 445.414,396.438C444.622,397.34 444.393,397.126 429.499,397.18C423.2,397.203 421.585,397.86 421.505,394.5C421.42,390.927 421.474,287.78 421.478,278.5C421.481,272.8 420.899,271.303 424.501,271.279C442.942,271.155 442.984,270.986 444.508,271.476C445.698,271.858 445.691,271.995 454.079,283.822C489.216,333.37 489.408,333.227 492.392,337.585C494.446,340.584 495.142,338.292 497.309,335.363C502.441,328.425 502.12,328.24 507.252,321.322C513.459,312.953 513.056,312.69 519.22,304.302C520.685,302.308 539.499,275.14 541.011,273.13C542.695,270.891 543.191,271.291 555.5,271.275C564.4,271.264 565.546,270.855 565.734,273.482C565.748,273.683 565.712,388.656 565.709,390.5C565.7,395.571 566.315,397.145 562.499,397.147C545.021,397.155 545.027,397.279 543.512,397.166C540.923,396.973 541.293,396.084 541.24,393.501Z" style="fill:url(#_Linear3);"/>
            </g>
            <g transform="matrix(1.414062,0,0,1.414062,-0.300715,14)">
                <path d="M322.778,214.053C325.232,215.599 325.243,215.584 325.304,215.672C327.033,218.188 322.913,216.602 316.596,224.574C312.897,229.243 313.822,233.444 309.754,231.03C277.883,212.111 249.288,219.593 237.416,223.205C207.922,232.179 175.573,259.377 170.822,305.543C168.778,325.407 173.795,337.586 172.568,340.532C172.209,341.392 162.535,352.592 161.643,353.625C158.076,357.754 157.329,359.592 156.106,357.873C155.52,357.049 152.392,345.162 151.599,341.478C146.916,319.728 148.277,303.788 151.609,289.528C154.814,277.566 160.658,255.58 182.673,232.665C205.78,208.615 233.872,201.753 234.521,201.616C239.265,200.616 239.76,199.915 244.461,199.21C260.318,196.834 266.586,197.163 268.514,197.264C297.286,198.772 312.22,207.285 322.778,214.053Z" style="fill:url(#_Linear4);"/>
            </g>
            <g transform="matrix(1.414062,0,0,1.414062,-0.300715,14)">
                <path d="M659.652,392.5C659.58,395.155 659.985,395.261 659.268,396.352C658.689,397.234 658.428,397.131 641.498,397.169C637.253,397.179 635.276,397.794 635.22,394.508C635.126,388.97 635.305,296.147 635.112,295.566C634.442,293.55 633.618,294.145 614.503,294.076C593.915,294.001 593.569,294.414 592.663,293.384C592.337,293.013 592.173,292.953 592.232,274.498C592.233,274.277 592.239,272.328 592.794,271.8C593.824,270.818 594.088,271.337 655.5,271.264C659.18,271.26 699.014,271.213 701.508,271.292C704.382,271.383 703.8,272.731 703.805,282.497C703.806,286.499 703.82,286.48 703.814,290.5C703.811,292.162 704.098,293.941 701.491,294.095C698.377,294.278 698.375,293.842 662.493,294.087C659.144,294.11 659.624,295.461 659.61,299.501C659.584,306.94 659.44,347.571 659.652,392.5Z" style="fill:url(#_Linear5);"/>
            </g>
            <g transform="matrix(1.414062,0,0,1.414062,-0.300715,14)">
                <path d="M754.593,275.5C754.566,282.38 754.453,310.657 754.563,361.5C754.587,372.752 754.151,373.807 756.533,374.092C756.797,374.124 816.321,374.079 817.525,374.131C820.099,374.243 819.786,375.347 819.768,383.5C819.742,395.885 820.003,396.431 818.399,397.085C817.741,397.353 749.493,397.166 743.502,397.149C731.804,397.117 730.324,397.635 729.97,395.446C729.855,394.74 729.95,394.737 729.952,386.501C729.974,352.833 729.996,319.166 730.017,285.498C730.022,272.401 729.813,271.735 731.47,271.365C732.22,271.197 752.339,271.311 752.514,271.322C755.303,271.496 754.56,274.801 754.593,275.5Z" style="fill:url(#_Linear6);"/>
            </g>
            <g transform="matrix(1.414062,0,0,1.414062,-0.300715,14)">
                <path d="M639.521,462.368C637.6,461.927 624.307,458.874 623.686,443.493C622.797,421.485 650.074,416.205 660.154,430.739C668.074,442.157 661.681,456.335 654.294,460.121C646.961,463.879 642.074,462.719 639.521,462.368ZM646.56,455.814C647.304,455.623 649.969,455.359 652.624,452.62C661.125,443.85 655.034,426.817 641.452,429.231C628.984,431.448 627.803,449.748 637.437,454.622C642.127,456.995 646.472,455.823 646.56,455.814Z" style="fill:url(#_Linear7);"/>
            </g>
            <g transform="matrix(1.414062,0,0,1.414062,-0.300715,14)">
                <path d="M792.499,462.283C790.122,462.1 789.21,462.841 788.854,460.465C788.836,460.345 788.793,424.77 788.855,424.554C789.376,422.748 790.04,422.967 802.5,422.979C804.875,422.982 815.052,421.959 819.161,430.662C821.196,434.974 820.361,443.131 814.494,446.49C812.658,447.541 811.694,447.533 812.631,449.441C813.254,450.707 818.595,458.907 819.126,459.722C819.242,459.9 820.731,462.186 818.467,462.296C813.757,462.526 812.873,461.805 812.499,461.501C811.085,460.348 805.54,449.644 803.696,449.017C802.758,448.698 800.219,448.738 798.502,448.747C795.139,448.766 795.879,450.376 795.817,459.502C795.797,462.52 794.622,462.212 792.499,462.283ZM812.115,439.301C812.435,438.338 815.44,429.31 804.503,429.159C797.011,429.057 795.907,428.924 795.825,431.51C795.504,441.649 795.847,441.908 796.545,442.437C797.445,443.12 806.396,442.731 806.529,442.712C809.904,442.237 809.827,441.847 812.115,439.301Z" style="fill:url(#_Linear8);"/>
            </g>
            <g transform="matrix(1.414062,0,0,1.414062,-0.300715,14)">
                <path d="M688.497,462.267C686.964,462.181 686.863,462.449 686.204,461.874C684.997,460.821 685.691,459.491 685.484,435.5C685.383,423.892 685.464,423.594 686.362,423.237C686.555,423.16 702.614,422.196 707.397,423.832C719.216,427.877 716.14,439.61 715.295,441.404C712.405,447.54 707.369,446.749 709.116,449.67C715.283,459.983 715.811,459.661 716.139,460.651C716.689,462.311 714.673,462.317 714.485,462.318C710.013,462.331 709.25,463.028 706.955,459.209C701.096,449.458 701.08,448.853 698.492,448.791C695.632,448.721 692.644,448.289 692.439,450.492C692.143,453.672 693.138,461.425 691.341,462.089C691.127,462.168 691.131,462.103 688.497,462.267ZM692.435,439.501C692.492,440.621 692.03,442.645 694.48,442.775C704.217,443.293 706.139,441.637 706.9,440.982C710.626,437.772 710.378,429.482 701.515,429.162C693.571,428.875 693.297,429.224 692.869,429.769C692.335,430.45 692.381,432.634 692.435,439.501Z" style="fill:url(#_Linear9);"/>
            </g>
            <g transform="matrix(1.414062,0,0,1.414062,-0.300715,14)">
                <path d="M355.953,240.441C356.071,243.028 356.141,243.006 355.878,245.569C350.299,269.209 316.772,260.014 322.635,237.535C325.855,225.186 344.412,219.928 353.135,232.755C355.299,235.937 355.859,239.793 355.953,240.441Z" style="fill:rgb(30,147,145);"/>
            </g>
            <g transform="matrix(1.414062,0,0,1.414062,-0.300715,14)">
                <path d="M530.501,462.289C529.828,462.259 527.597,462.659 527.268,460.531C527.193,460.047 527.229,454.06 527.232,453.497C527.265,447.992 527.214,448.014 527.234,442.498C527.302,424.288 526.904,423.695 528.353,423.169C529.492,422.755 529.5,422.908 543.507,423.051C554.208,423.16 558.262,430.695 557.807,437.516C556.767,453.11 538.335,448.662 535.489,449.465C532.771,450.232 535.17,460.172 533.733,461.704C533.039,462.445 532.886,462.124 530.501,462.289ZM534.201,439.503C534.277,440.18 534.15,440.869 534.226,441.546C534.437,443.422 536.626,443.297 542.496,443.233C553.68,443.111 552.223,432.065 546.405,429.757C544.754,429.102 535.675,428.684 534.718,429.687C534.066,430.371 534.182,432.318 534.201,439.503Z" style="fill:url(#_Linear10);"/>
            </g>
            <g transform="matrix(1.414062,0,0,1.414062,-0.300715,14)">
                <path d="M425.5,462.276C425.271,462.264 422.634,462.124 422.634,462.124C421.231,461.643 421.649,461.027 421.55,435.5C421.506,424.228 421.233,423.232 423.526,422.987C424.674,422.864 444.671,423.03 446.51,423.046C449.171,423.068 449.191,423.844 449.086,426.493C448.958,429.738 446.831,429.155 443.499,429.152C438.421,429.147 438.451,429.16 433.498,429.178C430.126,429.19 428.83,428.814 428.825,432.497C428.819,437.557 428.295,439.168 431.51,439.249C443.728,439.555 446.415,438.241 446.547,441.497C446.671,444.563 446.584,445.43 443.5,445.42C430.176,445.374 429.927,445.254 429.147,446.269C428.626,446.948 428.462,454.597 429.536,455.45C430.888,456.524 447.331,455.094 448.622,456.384C449.131,456.892 449.472,460.101 448.66,461.634C448.33,462.256 448.114,462.299 425.5,462.276Z" style="fill:url(#_Linear11);"/>
            </g>
            <g transform="matrix(1.414062,0,0,1.414062,-0.300715,14)">
                <path d="M746.501,462.267C740.968,462.267 739.997,462.435 739.284,461.678C738.774,461.138 738.865,460.236 738.864,458.498C738.832,424.095 738.927,423.962 739.476,423.473C740.078,422.939 742.255,422.973 742.5,422.977C762.811,423.295 762.807,422.787 764.552,423.048C767.855,423.543 766.097,428.474 765.654,428.703C763.596,429.765 748.342,428.581 746.438,429.409C745.229,429.934 745.391,437.92 746.251,438.77C747.363,439.871 760.897,439.001 762.531,439.358C762.879,439.434 764.523,439.794 763.968,443.573C763.637,445.825 762.658,445.354 751.499,445.368C747.426,445.373 745.678,444.43 745.659,448.502C745.63,454.411 745.225,455.787 748.493,455.836C765.204,456.086 765.567,455.583 766.224,456.667C766.652,457.373 766.565,460.719 766.233,461.359C765.73,462.326 765.416,462.29 746.501,462.267Z" style="fill:url(#_Linear12);"/>
            </g>
            <g transform="matrix(1.414062,0,0,1.414062,-0.300715,14)">
                <path d="M500.498,462.286C497.46,462.178 497.314,461.976 495.653,459.4C495.149,458.617 495.024,458.723 489.133,449.748C487.363,447.053 486.5,449.506 485.222,451.312C482.086,455.744 482.391,455.923 479.242,460.329C477.552,462.694 476.432,462.197 473.499,462.274C473.276,462.28 470.946,462.342 470.704,462.166C470.015,461.665 470.542,460.666 470.602,460.552C471.296,459.238 471.882,459.638 481.162,445.265C483.615,441.466 482.29,441.077 479.68,437.381C479.117,436.583 479.168,436.557 472.763,427.326C471.078,424.898 470.492,423.993 471.259,423.19C471.677,422.752 472.439,423.061 473.485,423.047C478.077,422.987 478.51,423.008 481.014,426.852C481.118,427.011 486.353,435.504 487.401,435.907C488.613,436.374 488.439,435.515 495.409,425.434C497.42,422.525 497.966,423.155 501.502,422.956C503.105,422.866 503.481,422.208 504.299,423.591C504.721,424.304 504.257,424.325 499.036,432.195C493.234,440.941 491.496,441.193 493.601,444.433C494.388,445.644 494.51,445.543 503.755,459.35C504.956,461.144 505.649,462.275 503.478,462.338C503.24,462.345 503.257,462.335 500.498,462.286Z" style="fill:url(#_Linear13);"/>
            </g>
            <g transform="matrix(1.414062,0,0,1.414062,-0.300715,14)">
                <path d="M590.5,462.272C581.59,462.255 580.345,462.474 579.869,461.34C579.219,459.793 579.644,428.373 579.682,425.506C579.701,424.138 579.396,422.632 584.54,423.04C587.174,423.249 586.701,424.581 586.689,432.499C586.656,454.551 586.613,454.774 587.499,455.502C588.506,456.328 602.77,455.359 604.705,456.174C606.072,456.749 605.577,460.96 605.329,461.414C604.735,462.499 604.378,462.269 590.5,462.272Z" style="fill:url(#_Linear14);"/>
            </g>
            <g transform="matrix(1.414062,0,0,1.414062,-0.300715,14)">
                <path d="M214.595,216.673C213.802,218.06 214.242,218.585 212.67,218.967C211.021,219.367 210.384,218.087 210.333,218.068C210.467,217.963 210.408,217.707 210.541,217.602C210.789,217.408 211.122,217.359 211.406,217.223C211.569,217.146 213.137,216.399 213.5,216.405C213.876,216.411 214.219,216.667 214.595,216.673Z" style="fill:rgb(32,160,155);"/>
            </g>
            <g transform="matrix(1.414062,0,0,1.414062,-0.300715,14)">
                <path d="M198.5,224.117C198.755,224.723 199.651,224.894 199.907,225.5C200.199,226.194 198.586,226.37 198.45,226.385C198.296,226.402 196.563,226.592 196.519,226.536C196.299,226.26 196.739,225.853 196.735,225.5C196.733,225.303 196.4,225.127 196.5,224.958C196.712,224.6 197.116,224.369 197.5,224.208C197.809,224.078 198.191,224.247 198.5,224.117Z" style="fill:rgb(30,159,153);"/>
            </g>
            <g transform="matrix(1.414062,0,0,1.414062,-0.300715,14)">
                <path d="M313.582,353.929C313.182,353.861 312.793,354.256 312.394,354.188C312.038,354.127 311.656,353.9 311.5,353.574C311.196,352.941 311.527,352.565 311.583,352.5C312.596,351.346 312.329,353.033 313.582,353.929Z" style="fill:rgb(32,153,149);"/>
            </g>
            <g transform="matrix(1.414062,0,0,1.414062,-0.300715,14)">
                <path d="M209.693,217.914C209.295,218.52 208.898,219.125 208.5,219.73C208.556,218.912 208.295,218.953 208.351,218.143C208.361,217.997 208.488,217.828 208.633,217.803C208.983,217.744 209.343,217.974 209.693,217.914Z" style="fill:rgb(32,162,156);"/>
            </g>
            <g transform="matrix(1.414062,0,0,1.414062,-0.300715,14)">
                <path d="M183.188,240.221C183.765,240.214 184.185,239.506 184.762,239.5C184.829,239.499 186.802,239.478 185.228,240.199C184.25,240.647 184.148,239.781 183.188,240.221Z" style="fill:rgb(30,154,149);"/>
            </g>
            <g transform="matrix(1.414062,0,0,1.414062,-0.300715,14)">
                <path d="M176.337,249.309C176.936,249.212 177.369,248.596 177.969,248.5C179.324,248.282 178.177,248.999 178.137,249.019C177.297,249.435 177.179,248.891 176.337,249.309Z" style="fill:rgb(29,152,148);"/>
            </g>
        </g>
    </g>
    <defs>
        <linearGradient id="_Linear1" x1="0" y1="0" x2="1" y2="0" gradientUnits="userSpaceOnUse" gradientTransform="matrix(59.403315,-179.784917,179.784917,59.403315,200.345257,439.110591)"><stop offset="0" style="stop-color:rgb(41,60,89);stop-opacity:1"/><stop offset="1" style="stop-color:rgb(47,70,108);stop-opacity:1"/></linearGradient>
        <linearGradient id="_Linear2" x1="0" y1="0" x2="1" y2="0" gradientUnits="userSpaceOnUse" gradientTransform="matrix(7.779006,269.88371,-269.88371,7.779006,314.201611,267.574854)"><stop offset="0" style="stop-color:rgb(34,156,151);stop-opacity:1"/><stop offset="1" style="stop-color:rgb(34,123,128);stop-opacity:1"/></linearGradient>
        <linearGradient id="_Linear3" x1="0" y1="0" x2="1" y2="0" gradientUnits="userSpaceOnUse" gradientTransform="matrix(0.707182,-126.073957,126.073957,0.707182,550.400506,397.220929)"><stop offset="0" style="stop-color:rgb(43,54,73);stop-opacity:1"/><stop offset="1" style="stop-color:rgb(43,70,104);stop-opacity:1"/></linearGradient>
        <linearGradient id="_Linear4" x1="0" y1="0" x2="1" y2="0" gradientUnits="userSpaceOnUse" gradientTransform="matrix(-190.415248,171.596866,-171.596866,-190.415248,325.699732,181.745856)"><stop offset="0" style="stop-color:rgb(41,159,154);stop-opacity:1"/><stop offset="1" style="stop-color:rgb(24,148,146);stop-opacity:1"/></linearGradient>
        <linearGradient id="_Linear5" x1="0" y1="0" x2="1" y2="0" gradientUnits="userSpaceOnUse" gradientTransform="matrix(0.707182,-126.073957,126.073957,0.707182,550.400506,397.220929)"><stop offset="0" style="stop-color:rgb(43,54,73);stop-opacity:1"/><stop offset="1" style="stop-color:rgb(43,70,104);stop-opacity:1"/></linearGradient>
        <linearGradient id="_Linear6" x1="0" y1="0" x2="1" y2="0" gradientUnits="userSpaceOnUse" gradientTransform="matrix(0.707182,-126.073957,126.073957,0.707182,550.400506,397.220929)"><stop offset="0" style="stop-color:rgb(43,54,73);stop-opacity:1"/><stop offset="1" style="stop-color:rgb(43,70,104);stop-opacity:1"/></linearGradient>
        <linearGradient id="_Linear7" x1="0" y1="0" x2="1" y2="0" gradientUnits="userSpaceOnUse" gradientTransform="matrix(0.707182,54.453039,-54.453039,0.707182,585.05244,415.116022)"><stop offset="0" style="stop-color:rgb(67,165,160);stop-opacity:1"/><stop offset="1" style="stop-color:rgb(67,133,134);stop-opacity:1"/></linearGradient>
        <linearGradient id="_Linear8" x1="0" y1="0" x2="1" y2="0" gradientUnits="userSpaceOnUse" gradientTransform="matrix(0.707182,54.453039,-54.453039,0.707182,585.05244,415.116022)"><stop offset="0" style="stop-color:rgb(67,165,160);stop-opacity:1"/><stop offset="1" style="stop-color:rgb(67,133,134);stop-opacity:1"/></linearGradient>
        <linearGradient id="_Linear9" x1="0" y1="0" x2="1" y2="0" gradientUnits="userSpaceOnUse" gradientTransform="matrix(0.707182,54.453039,-54.453039,0.707182,585.05244,415.116022)"><stop offset="0" style="stop-color:rgb(67,165,160);stop-opacity:1"/><stop offset="1" style="stop-color:rgb(67,133,134);stop-opacity:1"/></linearGradient>
        <linearGradient id="_Linear10" x1="0" y1="0" x2="1" y2="0" gradientUnits="userSpaceOnUse" gradientTransform="matrix(0.707182,54.453039,-54.453039,0.707182,585.05244,415.116022)"><stop offset="0" style="stop-color:rgb(67,165,160);stop-opacity:1"/><stop offset="1" style="stop-color:rgb(67,133,134);stop-opacity:1"/></linearGradient>
        <linearGradient id="_Linear11" x1="0" y1="0" x2="1" y2="0" gradientUnits="userSpaceOnUse" gradientTransform="matrix(0.707182,54.453039,-54.453039,0.707182,585.05244,415.116022)"><stop offset="0" style="stop-color:rgb(67,165,160);stop-opacity:1"/><stop offset="1" style="stop-color:rgb(67,133,134);stop-opacity:1"/></linearGradient>
        <linearGradient id="_Linear12" x1="0" y1="0" x2="1" y2="0" gradientUnits="userSpaceOnUse" gradientTransform="matrix(0.707182,54.453039,-54.453039,0.707182,585.05244,415.116022)"><stop offset="0" style="stop-color:rgb(67,165,160);stop-opacity:1"/><stop offset="1" style="stop-color:rgb(67,133,134);stop-opacity:1"/></linearGradient>
        <linearGradient id="_Linear13" x1="0" y1="0" x2="1" y2="0" gradientUnits="userSpaceOnUse" gradientTransform="matrix(0.707182,54.453039,-54.453039,0.707182,585.05244,415.116022)"><stop offset="0" style="stop-color:rgb(67,165,160);stop-opacity:1"/><stop offset="1" style="stop-color:rgb(67,133,134);stop-opacity:1"/></linearGradient>
        <linearGradient id="_Linear14" x1="0" y1="0" x2="1" y2="0" gradientUnits="userSpaceOnUse" gradientTransform="matrix(0.707182,54.453039,-54.453039,0.707182,585.05244,415.116022)"><stop offset="0" style="stop-color:rgb(67,165,160);stop-opacity:1"/><stop offset="1" style="stop-color:rgb(67,133,134);stop-opacity:1"/></linearGradient>
    </defs>
</svg>
