<?xml version="1.0" encoding="UTF-8" standalone="no"?>
<!DOCTYPE svg PUBLIC "-//W3C//DTD SVG 1.1//EN" "http://www.w3.org/Graphics/SVG/1.1/DTD/svg11.dtd">
<svg width="100%" height="100%" viewBox="0 0 429 517" version="1.1" xmlns="http://www.w3.org/2000/svg" xmlns:xlink="http://www.w3.org/1999/xlink" xml:space="preserve" xmlns:serif="http://www.serif.com/" style="fill-rule:evenodd;clip-rule:evenodd;stroke-linejoin:round;stroke-miterlimit:2;">
    <g id="Artboard1" transform="matrix(0.296271,0,0,0.476059,0,0)">
        <rect x="0" y="0" width="1448" height="1086" style="fill:none;"/>
        <g id="Layer1" transform="matrix(3.375291,0,0,2.10058,-529.920746,-527.245648)">
            <g transform="matrix(1.414062,0,0,1.414062,-0.300715,14)">
                <path d="M337.454,324.529C336.623,325.814 336.558,325.768 336.034,327.224C333.238,332.036 332.473,333.291 321.377,338.237C299.035,348.196 259.477,357.817 265.439,372.527C269.772,383.218 300.4,383.269 296.468,391.482C293.212,398.285 236.422,410.231 215.66,424.736C201.804,434.415 204.132,441.579 200.694,438.308C199.976,437.625 184.096,415.896 178.859,406.302C172.755,395.118 172.695,395.177 167.012,383.746C161.675,373.013 159.382,365.752 159.375,365.507C159.324,363.832 159.707,363.792 202.168,313.227C208.393,305.814 209.35,304.162 211.123,305.878C212.223,306.943 211.927,307.172 223.83,320.192C225.68,322.216 226.294,323.189 228.024,321.079C229.751,318.973 229.856,319.066 250.105,295.172C272.764,268.433 272.647,268.274 273.623,267.716C275.094,266.876 277.159,270.048 277.534,270.47C284.361,278.164 315.11,313.917 315.636,314.315C317.071,315.404 318.816,313.095 319.957,311.964C323.326,308.624 323.904,308.403 325.283,309.722C325.284,309.723 334.844,320.905 337.454,324.529Z" style="fill:url(#_Linear1);"/>
            </g>
            <g transform="matrix(1.414062,0,0,1.414062,-0.300715,14)">
                <path d="M337.454,324.529C339.178,326.01 339.053,326.129 348.55,337.457C349.268,338.314 351.412,341.859 352.142,337.41C354.098,325.487 358.082,306.892 348.295,278.575C346.215,272.556 343.783,270.569 347.567,269.752C355.95,267.941 360.482,261.336 361.236,260.238C362.669,258.149 363.511,260.277 363.58,260.452C367.759,271.01 375.827,284.349 375.929,313.498C375.984,329.228 374.951,358.036 344.089,411.27C338.547,420.83 320.511,446.963 313.146,456.225C310.585,459.447 292.52,483.534 266.551,508.554C264.325,510.699 263.741,511.608 261.583,509.417C258.905,506.696 246.486,493.209 245.181,491.792C239.916,486.074 239.937,486.092 234.722,480.303C228.501,473.398 221.556,468.271 225.437,454.483C235.844,417.51 331.603,412.002 321.525,387.489C319.561,382.712 311.166,379.482 309.411,378.721C302.92,375.903 292.094,374.822 286.132,369.831C281.294,362.523 294.658,359.925 317.62,346.721C325.143,342.395 332.584,337.687 336.494,330.498C338.013,327.705 336.253,327.699 336.034,327.224C336.558,325.768 336.623,325.814 337.454,324.529Z" style="fill:url(#_Linear2);"/>
            </g>
            <g transform="matrix(1.414062,0,0,1.414062,-0.300715,14)">
                <path d="M322.778,214.053C325.232,215.599 325.243,215.584 325.304,215.672C327.033,218.188 322.913,216.602 316.596,224.574C312.897,229.243 313.822,233.444 309.754,231.03C277.883,212.111 249.288,219.593 237.416,223.205C207.922,232.179 175.573,259.377 170.822,305.543C168.778,325.407 173.795,337.586 172.568,340.532C172.209,341.392 162.535,352.592 161.643,353.625C158.076,357.754 157.329,359.592 156.106,357.873C155.52,357.049 152.392,345.162 151.599,341.478C146.916,319.728 148.277,303.788 151.609,289.528C154.814,277.566 160.658,255.58 182.673,232.665C205.78,208.615 233.872,201.753 234.521,201.616C239.265,200.616 239.76,199.915 244.461,199.21C260.318,196.834 266.586,197.163 268.514,197.264C297.286,198.772 312.22,207.285 322.778,214.053Z" style="fill:url(#_Linear3);"/>
            </g>
            <g transform="matrix(1.414062,0,0,1.414062,-0.300715,14)">
                <path d="M355.953,240.441C356.071,243.028 356.141,243.006 355.878,245.569C350.299,269.209 316.772,260.014 322.635,237.535C325.855,225.186 344.412,219.928 353.135,232.755C355.299,235.937 355.859,239.793 355.953,240.441Z" style="fill:rgb(30,147,145);"/>
            </g>
            <g transform="matrix(1.414062,0,0,1.414062,-0.300715,14)">
                <path d="M214.595,216.673C213.802,218.06 214.242,218.585 212.67,218.967C211.021,219.367 210.384,218.087 210.333,218.068C210.467,217.963 210.408,217.707 210.541,217.602C210.789,217.408 211.122,217.359 211.406,217.223C211.569,217.146 213.137,216.399 213.5,216.405C213.876,216.411 214.219,216.667 214.595,216.673Z" style="fill:rgb(32,160,155);"/>
            </g>
            <g transform="matrix(1.414062,0,0,1.414062,-0.300715,14)">
                <path d="M198.5,224.117C198.755,224.723 199.651,224.894 199.907,225.5C200.199,226.194 198.586,226.37 198.45,226.385C198.296,226.402 196.563,226.592 196.519,226.536C196.299,226.26 196.739,225.853 196.735,225.5C196.733,225.303 196.4,225.127 196.5,224.958C196.712,224.6 197.116,224.369 197.5,224.208C197.809,224.078 198.191,224.247 198.5,224.117Z" style="fill:rgb(30,159,153);"/>
            </g>
            <g transform="matrix(1.414062,0,0,1.414062,-0.300715,14)">
                <path d="M313.582,353.929C313.182,353.861 312.793,354.256 312.394,354.188C312.038,354.127 311.656,353.9 311.5,353.574C311.196,352.941 311.527,352.565 311.583,352.5C312.596,351.346 312.329,353.033 313.582,353.929Z" style="fill:rgb(32,153,149);"/>
            </g>
            <g transform="matrix(1.414062,0,0,1.414062,-0.300715,14)">
                <path d="M209.693,217.914C209.295,218.52 208.898,219.125 208.5,219.73C208.556,218.912 208.295,218.953 208.351,218.143C208.361,217.997 208.488,217.828 208.633,217.803C208.983,217.744 209.343,217.974 209.693,217.914Z" style="fill:rgb(32,162,156);"/>
            </g>
            <g transform="matrix(1.414062,0,0,1.414062,-0.300715,14)">
                <path d="M183.188,240.221C183.765,240.214 184.185,239.506 184.762,239.5C184.829,239.499 186.802,239.478 185.228,240.199C184.25,240.647 184.148,239.781 183.188,240.221Z" style="fill:rgb(30,154,149);"/>
            </g>
            <g transform="matrix(1.414062,0,0,1.414062,-0.300715,14)">
                <path d="M176.337,249.309C176.936,249.212 177.369,248.596 177.969,248.5C179.324,248.282 178.177,248.999 178.137,249.019C177.297,249.435 177.179,248.891 176.337,249.309Z" style="fill:rgb(29,152,148);"/>
            </g>
        </g>
    </g>
    <defs>
        <linearGradient id="_Linear1" x1="0" y1="0" x2="1" y2="0" gradientUnits="userSpaceOnUse" gradientTransform="matrix(59.403315,-179.784917,179.784917,59.403315,200.345257,439.110591)"><stop offset="0" style="stop-color:rgb(41,60,89);stop-opacity:1"/><stop offset="1" style="stop-color:rgb(47,70,108);stop-opacity:1"/></linearGradient>
        <linearGradient id="_Linear2" x1="0" y1="0" x2="1" y2="0" gradientUnits="userSpaceOnUse" gradientTransform="matrix(7.779006,269.88371,-269.88371,7.779006,314.201611,267.574854)"><stop offset="0" style="stop-color:rgb(34,156,151);stop-opacity:1"/><stop offset="1" style="stop-color:rgb(34,123,128);stop-opacity:1"/></linearGradient>
        <linearGradient id="_Linear3" x1="0" y1="0" x2="1" y2="0" gradientUnits="userSpaceOnUse" gradientTransform="matrix(-190.415248,171.596866,-171.596866,-190.415248,325.699732,181.745856)"><stop offset="0" style="stop-color:rgb(41,159,154);stop-opacity:1"/><stop offset="1" style="stop-color:rgb(24,148,146);stop-opacity:1"/></linearGradient>
    </defs>
</svg>
